<svg width="21" height="16" viewBox="0 0 21 16" fill="none" xmlns="http://www.w3.org/2000/svg">
<path fill-rule="evenodd" clip-rule="evenodd" d="M0.5 3C0.5 1.34315 1.84315 0 3.5 0H17.5C19.1569 0 20.5 1.34315 20.5 3V14C20.5 15.1046 19.6046 16 18.5 16H2.5C1.39543 16 0.5 15.1046 0.5 14V3ZM3.5 2C2.94772 2 2.5 2.44772 2.5 3V14H5.5V8C5.5 6.89543 6.39543 6 7.5 6H13.5C14.6046 6 15.5 6.89543 15.5 8V14H18.5V3C18.5 2.44772 18.0523 2 17.5 2H3.5ZM9.5 14H7.5V8H9.5V14ZM11.5 14H13.5V8H11.5V14Z" fill="black"/>
</svg>
